<?xml version="1.0" encoding="UTF-8" standalone="no"?>
<svg
   xmlns:dc="http://purl.org/dc/elements/1.1/"
   xmlns:cc="http://creativecommons.org/ns#"
   xmlns:rdf="http://www.w3.org/1999/02/22-rdf-syntax-ns#"
   xmlns:svg="http://www.w3.org/2000/svg"
   xmlns="http://www.w3.org/2000/svg"
   viewBox="0 0 690.66669 268.59332"
   height="268.59332"
   width="690.66669"
   xml:space="preserve"
   version="1.1"
   id="svg2"><metadata
     id="metadata8"><rdf:RDF><cc:Work
         rdf:about=""><dc:format>image/svg+xml</dc:format><dc:type
           rdf:resource="http://purl.org/dc/dcmitype/StillImage" /></cc:Work></rdf:RDF></metadata><defs
     id="defs6" /><g
     transform="matrix(1.3333333,0,0,-1.3333333,0,268.59333)"
     id="g10"><g
       transform="translate(0,201.4452)"
       id="g12"><path
         id="path14"
         style="fill:#cb3837;fill-opacity:1;fill-rule:nonzero;stroke:none"
         d="m 0,0 0,-172.667 143.888,0 0,-28.778 115.112,0 0,28.778 259,0 L 518,0 0,0 Z" /></g><g
       transform="translate(28.7778,172.667)"
       id="g16"><path
         id="path18"
         style="fill:#ffffff;fill-opacity:1;fill-rule:nonzero;stroke:none"
         d="m 0,0 0,-115.11 57.556,0 0,86.332 28.777,0 0,-86.332 28.778,0 0,115.11" /></g><g
       transform="translate(460.4454,57.7224)"
       id="g20"><path
         id="path22"
         style="fill:#ffffff;fill-opacity:1;fill-rule:nonzero;stroke:none"
         d="M 0,0 28.777,0 0,0 Z" /></g><g
       transform="translate(402.8886,57.7224)"
       id="g24"><path
         id="path26"
         style="fill:#ffffff;fill-opacity:1;fill-rule:nonzero;stroke:none"
         d="M 0,0 28.779,0 0,0 Z" /></g><g
       transform="translate(316.557,57.7224)"
       id="g28"><path
         id="path30"
         style="fill:#ffffff;fill-opacity:1;fill-rule:nonzero;stroke:none"
         d="M 0,0 57.554,0 0,0 Z" /></g><g
       transform="translate(172.666,172.8335)"
       id="g32"><path
         id="path34"
         style="fill:#ffffff;fill-opacity:1;fill-rule:nonzero;stroke:none"
         d="m 0,0 0,-143.888 57.557,0 0,115.11 28.776,0 0,-57.555 -28.776,0 0,-28.778 57.554,0 0,115.111" /></g><g
       transform="translate(316.5547,172.6675)"
       id="g36"><path
         id="path38"
         style="fill:#ffffff;fill-opacity:1;fill-rule:nonzero;stroke:none"
         d="m 0,0 0,-115.111 57.557,0 0,86.333 28.777,0 0,-86.333 28.777,0 0,86.333 28.778,0 0,-86.333 28.779,0 0,115.111" /></g></g></svg>